<svg width="100" height="23" viewBox="0 0 100 23" fill="none" xmlns="http://www.w3.org/2000/svg">
<line y1="17.3091" x2="100" y2="17.3091" stroke="#C5C2FF" stroke-opacity="0.5" stroke-width="10"/>
<path d="M5.6875 17.3091V4.45947H7.79688V15.5161H13.2549V17.3091H5.6875ZM18.1436 7.39502C19.0107 7.39502 19.7549 7.57373 20.376 7.93115C20.9971 8.28857 21.4746 8.79541 21.8086 9.45166C22.1426 10.1079 22.3096 10.8931 22.3096 11.8071V12.9146H15.8145C15.8379 13.8579 16.0898 14.5845 16.5703 15.0942C17.0566 15.604 17.7363 15.8589 18.6094 15.8589C19.2305 15.8589 19.7871 15.8003 20.2793 15.6831C20.7773 15.5601 21.29 15.3813 21.8174 15.147V16.8257C21.3311 17.0542 20.8359 17.2212 20.332 17.3267C19.8281 17.4321 19.2246 17.4849 18.5215 17.4849C17.5664 17.4849 16.7256 17.3003 15.999 16.9312C15.2783 16.5562 14.7129 15.9995 14.3027 15.2612C13.8984 14.5229 13.6963 13.606 13.6963 12.5103C13.6963 11.4204 13.8809 10.4946 14.25 9.73291C14.6191 8.97119 15.1377 8.39111 15.8057 7.99268C16.4736 7.59424 17.2529 7.39502 18.1436 7.39502ZM18.1436 8.95068C17.4932 8.95068 16.9658 9.16162 16.5615 9.5835C16.1631 10.0054 15.9287 10.6235 15.8584 11.438H20.2881C20.2822 10.9517 20.2002 10.521 20.042 10.146C19.8896 9.771 19.6553 9.47803 19.3389 9.26709C19.0283 9.05615 18.6299 8.95068 18.1436 8.95068ZM27.4531 7.39502C28.6836 7.39502 29.6123 7.66748 30.2393 8.2124C30.8721 8.75732 31.1885 9.60693 31.1885 10.7612V17.3091H29.7207L29.3252 15.9292H29.2549C28.9795 16.2808 28.6953 16.5708 28.4023 16.7993C28.1094 17.0278 27.7695 17.1978 27.3828 17.3091C27.002 17.4263 26.5361 17.4849 25.9854 17.4849C25.4053 17.4849 24.8867 17.3794 24.4297 17.1685C23.9727 16.9517 23.6123 16.6235 23.3486 16.1841C23.085 15.7446 22.9531 15.188 22.9531 14.5142C22.9531 13.5122 23.3252 12.7593 24.0693 12.2554C24.8193 11.7515 25.9502 11.4731 27.4619 11.4204L29.1494 11.3589V10.8491C29.1494 10.1753 28.9912 9.69482 28.6748 9.40771C28.3643 9.12061 27.9248 8.97705 27.3564 8.97705C26.8701 8.97705 26.3984 9.04736 25.9414 9.18799C25.4844 9.32861 25.0391 9.50146 24.6055 9.70654L23.9375 8.24756C24.4121 7.99561 24.9512 7.79053 25.5547 7.63232C26.1641 7.47412 26.7969 7.39502 27.4531 7.39502ZM29.1406 12.6597L27.8838 12.7036C26.8525 12.7388 26.1289 12.9146 25.7129 13.231C25.2969 13.5474 25.0889 13.981 25.0889 14.5317C25.0889 15.0122 25.2324 15.3638 25.5195 15.5864C25.8066 15.8032 26.1846 15.9116 26.6533 15.9116C27.3682 15.9116 27.96 15.7095 28.4287 15.3052C28.9033 14.895 29.1406 14.2944 29.1406 13.5034V12.6597ZM38.0107 7.39502C38.1748 7.39502 38.3535 7.40381 38.5469 7.42139C38.7402 7.43896 38.9072 7.4624 39.0479 7.4917L38.8545 9.42529C38.7314 9.39014 38.5791 9.36377 38.3975 9.34619C38.2217 9.32861 38.0635 9.31982 37.9229 9.31982C37.5537 9.31982 37.2021 9.38135 36.8682 9.50439C36.5342 9.62158 36.2383 9.80322 35.9805 10.0493C35.7227 10.2896 35.5205 10.5913 35.374 10.9546C35.2275 11.3179 35.1543 11.7397 35.1543 12.2202V17.3091H33.0801V7.57959H34.6973L34.9785 9.29346H35.0752C35.2686 8.94775 35.5088 8.63135 35.7959 8.34424C36.083 8.05713 36.4111 7.82861 36.7803 7.65869C37.1553 7.48291 37.5654 7.39502 38.0107 7.39502ZM44.9209 7.39502C46.0166 7.39502 46.8691 7.6792 47.4785 8.24756C48.0938 8.81006 48.4014 9.71533 48.4014 10.9634V17.3091H46.3359V11.3501C46.3359 10.5942 46.1807 10.0288 45.8701 9.65381C45.5596 9.27295 45.0791 9.08252 44.4287 9.08252C43.4854 9.08252 42.8291 9.37256 42.46 9.95264C42.0967 10.5327 41.915 11.3735 41.915 12.4751V17.3091H39.8496V7.57959H41.458L41.748 8.89795H41.8623C42.0732 8.55811 42.334 8.27979 42.6445 8.06299C42.9609 7.84033 43.3125 7.67334 43.6992 7.56201C44.0918 7.45068 44.499 7.39502 44.9209 7.39502ZM64.9639 7.39502C66.0537 7.39502 66.874 7.67627 67.4248 8.23877C67.9814 8.80127 68.2598 9.70361 68.2598 10.9458V17.3091H66.1943V11.3149C66.1943 10.5767 66.0508 10.02 65.7637 9.64502C65.4766 9.27002 65.04 9.08252 64.4541 9.08252C63.6338 9.08252 63.042 9.34619 62.6787 9.87354C62.3213 10.395 62.1426 11.1538 62.1426 12.1499V17.3091H60.0771V11.3149C60.0771 10.8228 60.0127 10.4126 59.8838 10.0845C59.7607 9.75049 59.5703 9.50146 59.3125 9.3374C59.0547 9.16748 58.7295 9.08252 58.3369 9.08252C57.7686 9.08252 57.3145 9.21143 56.9746 9.46924C56.6406 9.72705 56.4004 10.1079 56.2539 10.6118C56.1074 11.1099 56.0342 11.7222 56.0342 12.4487V17.3091H53.9688V7.57959H55.5771L55.8672 8.88916H55.9814C56.1807 8.54932 56.4268 8.271 56.7197 8.0542C57.0186 7.83154 57.3496 7.66748 57.7129 7.56201C58.0762 7.45068 58.4541 7.39502 58.8467 7.39502C59.5732 7.39502 60.1855 7.52393 60.6836 7.78174C61.1816 8.03369 61.5537 8.42041 61.7998 8.94189H61.958C62.2627 8.41455 62.6875 8.0249 63.2324 7.77295C63.7773 7.521 64.3545 7.39502 64.9639 7.39502ZM78.7559 12.4224C78.7559 13.231 78.6504 13.9487 78.4395 14.5757C78.2285 15.2026 77.9209 15.7329 77.5166 16.1665C77.1123 16.5942 76.626 16.9224 76.0576 17.1509C75.4893 17.3735 74.8477 17.4849 74.1328 17.4849C73.4648 17.4849 72.8525 17.3735 72.2959 17.1509C71.7393 16.9224 71.2559 16.5942 70.8457 16.1665C70.4414 15.7329 70.1279 15.2026 69.9053 14.5757C69.6826 13.9487 69.5713 13.231 69.5713 12.4224C69.5713 11.3501 69.7559 10.4419 70.125 9.69775C70.5 8.94775 71.0332 8.37646 71.7246 7.98389C72.416 7.59131 73.2393 7.39502 74.1943 7.39502C75.0908 7.39502 75.8818 7.59131 76.5674 7.98389C77.2529 8.37646 77.7891 8.94775 78.1758 9.69775C78.5625 10.4478 78.7559 11.356 78.7559 12.4224ZM71.6982 12.4224C71.6982 13.1313 71.7832 13.7378 71.9531 14.2417C72.1289 14.7456 72.3984 15.1323 72.7617 15.4019C73.125 15.6655 73.5938 15.7974 74.168 15.7974C74.7422 15.7974 75.2109 15.6655 75.5742 15.4019C75.9375 15.1323 76.2041 14.7456 76.374 14.2417C76.5439 13.7378 76.6289 13.1313 76.6289 12.4224C76.6289 11.7134 76.5439 11.1128 76.374 10.6206C76.2041 10.1226 75.9375 9.74463 75.5742 9.48682C75.2109 9.22314 74.7393 9.09131 74.1592 9.09131C73.3037 9.09131 72.6797 9.37842 72.2871 9.95264C71.8945 10.5269 71.6982 11.3501 71.6982 12.4224ZM85.0596 7.39502C85.2236 7.39502 85.4023 7.40381 85.5957 7.42139C85.7891 7.43896 85.9561 7.4624 86.0967 7.4917L85.9033 9.42529C85.7803 9.39014 85.6279 9.36377 85.4463 9.34619C85.2705 9.32861 85.1123 9.31982 84.9717 9.31982C84.6025 9.31982 84.251 9.38135 83.917 9.50439C83.583 9.62158 83.2871 9.80322 83.0293 10.0493C82.7715 10.2896 82.5693 10.5913 82.4229 10.9546C82.2764 11.3179 82.2031 11.7397 82.2031 12.2202V17.3091H80.1289V7.57959H81.7461L82.0273 9.29346H82.124C82.3174 8.94775 82.5576 8.63135 82.8447 8.34424C83.1318 8.05713 83.46 7.82861 83.8291 7.65869C84.2041 7.48291 84.6143 7.39502 85.0596 7.39502ZM90.7744 7.39502C91.6416 7.39502 92.3857 7.57373 93.0068 7.93115C93.6279 8.28857 94.1055 8.79541 94.4395 9.45166C94.7734 10.1079 94.9404 10.8931 94.9404 11.8071V12.9146H88.4453C88.4688 13.8579 88.7207 14.5845 89.2012 15.0942C89.6875 15.604 90.3672 15.8589 91.2402 15.8589C91.8613 15.8589 92.418 15.8003 92.9102 15.6831C93.4082 15.5601 93.9209 15.3813 94.4482 15.147V16.8257C93.9619 17.0542 93.4668 17.2212 92.9629 17.3267C92.459 17.4321 91.8555 17.4849 91.1523 17.4849C90.1973 17.4849 89.3564 17.3003 88.6299 16.9312C87.9092 16.5562 87.3438 15.9995 86.9336 15.2612C86.5293 14.5229 86.3271 13.606 86.3271 12.5103C86.3271 11.4204 86.5117 10.4946 86.8809 9.73291C87.25 8.97119 87.7686 8.39111 88.4365 7.99268C89.1045 7.59424 89.8838 7.39502 90.7744 7.39502ZM90.7744 8.95068C90.124 8.95068 89.5967 9.16162 89.1924 9.5835C88.7939 10.0054 88.5596 10.6235 88.4893 11.438H92.9189C92.9131 10.9517 92.8311 10.521 92.6729 10.146C92.5205 9.771 92.2861 9.47803 91.9697 9.26709C91.6592 9.05615 91.2607 8.95068 90.7744 8.95068Z" fill="#2F2E41"/>
</svg>
